<svg width="148" height="34" viewBox="0 0 148 34" fill="none" xmlns="http://www.w3.org/2000/svg">
<g clip-path="url(#clip0_5995_742)">
<path d="M45.216 7.6C46.668 7.6 47.878 8.084 48.868 9.052C49.836 10.02 50.32 11.23 50.32 12.66C50.32 14.09 49.836 15.278 48.868 16.246C47.878 17.236 46.668 17.72 45.216 17.72H42.07V23H39.54V7.6H45.216ZM45.216 15.344C45.964 15.344 46.58 15.08 47.064 14.574C47.548 14.068 47.79 13.43 47.79 12.66C47.79 11.89 47.548 11.23 47.064 10.724C46.58 10.218 45.964 9.976 45.216 9.976H42.07V15.344H45.216ZM64.0886 23L63.0106 19.898H56.4546L55.3766 23H52.6266L58.2146 7.6H61.2506L66.8166 23H64.0886ZM57.2906 17.522H62.1746L59.7326 10.57L57.2906 17.522ZM88.6686 23H85.6546L79.5826 15.674V23H77.0526V7.6H79.5826V14.508L85.4346 7.6H88.4486L82.2226 15.102L88.6686 23ZM103.684 7.6L98.3164 16.884V23H95.7864V16.884L90.4184 7.6H93.3004L97.0624 14.42L100.802 7.6H103.684ZM108.399 20.976C106.881 19.458 106.111 17.566 106.111 15.3C106.111 13.034 106.881 11.142 108.399 9.602C109.917 8.084 111.853 7.314 114.163 7.314C115.549 7.314 116.847 7.644 118.035 8.304C119.201 8.964 120.125 9.866 120.785 10.988L118.585 12.264C118.167 11.494 117.573 10.9 116.803 10.438C116.011 9.998 115.131 9.778 114.163 9.778C112.513 9.778 111.193 10.306 110.181 11.34C109.147 12.374 108.641 13.694 108.641 15.3C108.641 16.906 109.147 18.226 110.181 19.26C111.193 20.294 112.513 20.822 114.163 20.822C115.131 20.822 116.011 20.602 116.803 20.14C117.595 19.7 118.189 19.106 118.585 18.336L120.785 19.59C120.147 20.712 119.223 21.614 118.057 22.274C116.869 22.956 115.571 23.286 114.163 23.286C111.853 23.286 109.917 22.516 108.399 20.976Z" fill="black"/>
<path opacity="0.5" d="M25.6001 11.4L6.9251 1.875L1.6001 4.65L25.6001 16.8V11.4ZM6.9251 12.675L12.3251 15.45V28.95L6.9251 31.725V12.675Z" fill="black"/>
<path d="M25.6001 16.8023L6.9251 26.3273L1.6001 23.6273L25.6001 11.4023V16.8023Z" fill="black"/>
</g>
<defs>
<clipPath id="clip0_5995_742">
<rect width="148" height="34" fill="white"/>
</clipPath>
</defs>
</svg>
